<svg xmlns="http://www.w3.org/2000/svg" width="1166.936" height="628.871" viewBox="0 0 1166.936 628.871"><defs><style>.a{fill:#022b3a;}</style></defs><g transform="translate(-431.608 -1297.809)"><g transform="translate(-13.262 1256.932)"><ellipse class="a" cx="20" cy="20" rx="20" ry="20" transform="translate(1230.146 81.913)"/><ellipse class="a" cx="20" cy="20" rx="20" ry="20" transform="translate(1524.835 119.162)"/><rect class="a" width="131" height="119" rx="16" transform="translate(1344.354 41.637) rotate(25)"/><rect class="a" width="131" height="119" rx="16" transform="translate(1008.719 109.765) rotate(-25)"/><rect class="a" width="89" height="78.535" rx="16" transform="translate(828.502 149.318) rotate(-45)"/><ellipse class="a" cx="40" cy="40" rx="40" ry="40" transform="translate(718.573 40.877)"/><circle class="a" cx="20" cy="20" r="20" transform="translate(552.979 54.402)"/><path class="a" d="M26.706,18.886a16,16,0,0,1,26.271,0L62.2,32.147A16,16,0,0,1,49.065,57.282H30.618A16,16,0,0,1,17.483,32.147Z" transform="translate(504.499 162.398) rotate(60)"/><rect class="a" width="131" height="119" rx="16" transform="translate(657.125 119.162) rotate(45)"/><rect class="a" width="89" height="78.535" rx="16" transform="translate(512.997 282.402) rotate(45)"/><path class="a" d="M30.08,20.669a16,16,0,0,1,26.839,0L70.955,42.287A16,16,0,0,1,57.535,67H29.465a16,16,0,0,1-13.42-24.713Z" transform="matrix(-0.966, 0.259, -0.259, -0.966, 849.261, 299.885)"/><path class="a" d="M30.08,20.669a16,16,0,0,1,26.839,0L70.955,42.287A16,16,0,0,1,57.535,67H29.465a16,16,0,0,1-13.42-24.713Z" transform="matrix(-0.966, 0.259, -0.259, -0.966, 1521.585, 281.146)"/><path class="a" d="M26.706,18.886a16,16,0,0,1,26.271,0L62.2,32.147A16,16,0,0,1,49.064,57.282H30.618A16,16,0,0,1,17.483,32.147Z" transform="translate(1036.416 238.016) rotate(120)"/><circle class="a" cx="40" cy="40" r="40" transform="translate(1323.979 290.424)"/><path class="a" d="M30.08,20.669a16,16,0,0,1,26.839,0L70.955,42.287A16,16,0,0,1,57.535,67H29.465a16,16,0,0,1-13.42-24.713Z" transform="matrix(0.966, 0.259, -0.259, 0.966, 1223.715, 172.812)"/><rect class="a" width="131" height="119" rx="16" transform="translate(1065.055 334.667) rotate(-45)"/></g><g transform="translate(2053.436 1967.557) rotate(180)"><ellipse class="a" cx="20" cy="20" rx="20" ry="20" transform="translate(1230.146 81.913)"/><rect class="a" width="131" height="119" rx="16" transform="translate(1344.354 41.637) rotate(25)"/><rect class="a" width="131" height="119" rx="16" transform="translate(1008.719 109.765) rotate(-25)"/><rect class="a" width="89" height="78.535" rx="16" transform="translate(828.502 149.318) rotate(-45)"/><ellipse class="a" cx="40" cy="40" rx="40" ry="40" transform="translate(718.573 40.877)"/><ellipse class="a" cx="40" cy="40" rx="40" ry="40" transform="translate(1541.827 121.913)"/><circle class="a" cx="20" cy="20" r="20" transform="translate(552.979 54.402)"/><path class="a" d="M26.706,18.886a16,16,0,0,1,26.271,0L62.2,32.147A16,16,0,0,1,49.065,57.282H30.618A16,16,0,0,1,17.483,32.147Z" transform="translate(504.499 162.398) rotate(60)"/><path class="a" d="M26.706,18.886a16,16,0,0,1,26.271,0L62.2,32.147A16,16,0,0,1,49.065,57.282H30.618A16,16,0,0,1,17.483,32.147Z" transform="translate(1512.688 193.212) rotate(60)"/><rect class="a" width="131" height="119" rx="16" transform="translate(657.125 119.162) rotate(45)"/><rect class="a" width="89" height="78.535" rx="16" transform="translate(512.997 282.402) rotate(45)"/><path class="a" d="M30.08,20.669a16,16,0,0,1,26.839,0L70.955,42.287A16,16,0,0,1,57.535,67H29.465a16,16,0,0,1-13.42-24.713Z" transform="matrix(-0.966, 0.259, -0.259, -0.966, 849.261, 299.885)"/><path class="a" d="M26.706,18.886a16,16,0,0,1,26.271,0L62.2,32.147A16,16,0,0,1,49.064,57.282H30.618A16,16,0,0,1,17.483,32.147Z" transform="translate(1036.416 238.016) rotate(120)"/><circle class="a" cx="40" cy="40" r="40" transform="translate(1339.54 267.023)"/><path class="a" d="M30.08,20.669a16,16,0,0,1,26.839,0L70.955,42.287A16,16,0,0,1,57.535,67H29.465a16,16,0,0,1-13.42-24.713Z" transform="matrix(0.966, 0.259, -0.259, 0.966, 1223.715, 172.812)"/><rect class="a" width="131" height="119" rx="16" transform="translate(1065.055 334.667) rotate(-45)"/></g></g></svg>