<svg xmlns="http://www.w3.org/2000/svg" width="65.257" height="108.33" viewBox="0 0 65.257 108.33"><defs><style>.a{fill:#fff;}</style></defs><g transform="translate(-203.319 -174.886)"><path class="a" d="M228.415,187.716V182.3a1.547,1.547,0,0,0-.341-.991l-5.591,1.943v6.526Z" transform="translate(25.329 8.491)"/><path class="a" d="M212.447,234.5V196.146L247.1,184.094a2.812,2.812,0,0,1,2.357.216l2.714-.945a10.046,10.046,0,0,1,3.313-.564c.167,0,.332.012.5.019a9.137,9.137,0,0,0-2.742-3.322,8.5,8.5,0,0,0-8.015-1.277l-38.715,13.466v76.4l5.934,5.052V234.5Z" transform="translate(4.222 3.764)"/><path class="a" d="M209.253,231.65V193.3l34.656-12.054a2.817,2.817,0,0,1,2.354.218l2.716-.945a10.025,10.025,0,0,1,3.311-.566c.167,0,.332.012.5.021a9.155,9.155,0,0,0-2.74-3.322,8.506,8.506,0,0,0-8.017-1.277l-38.715,13.464v76.693l5.934,5.052V231.65Z" transform="translate(0 0)"/><path class="a" d="M228.415,184.772l-5.932,2.062V198.3l5.918,5.04c0-.132.014-.262.014-.395Z" transform="translate(25.329 13.067)"/><path class="a" d="M235.148,190.78a9.261,9.261,0,0,1-6.085,8.809L212.9,205.21v6.524l22.1-7.683a9.242,9.242,0,0,0,6.069-8.414l-5.918-5.04Z" transform="translate(12.665 20.766)"/><path class="a" d="M242.563,193.8a9.259,9.259,0,0,1-6.085,8.809l-23.577,8.2v6.526l29.509-10.264a9.237,9.237,0,0,0,6.081-8.7l-5.927-5.05Z" transform="translate(12.665 24.362)"/><path class="a" d="M231.609,185.527A1.638,1.638,0,0,0,231,184.22a1.428,1.428,0,0,0-.866-.3,1.5,1.5,0,0,0-.481.081l-3.979,1.384v20.359l5.927,5.05c0-.037,0-.072,0-.109Z" transform="translate(29.551 11.938)"/><path class="a" d="M256.436,182.344a8.5,8.5,0,0,0-8.017-1.275l-38.712,13.464v76.1l5.932,5.054V243.872l38.408-13.359a9.247,9.247,0,0,0,6.085-8.809v-.183l-5.932-5.052v.775a9.264,9.264,0,0,1-6.085,8.809l-32.476,11.3V199L250.3,186.941a2.839,2.839,0,0,1,2.682.43,3.27,3.27,0,0,1,1.224,2.614v26.484l5.932,5.052V189.878A9.315,9.315,0,0,0,256.436,182.344Z" transform="translate(8.443 7.529)"/></g></svg>